# xmcd
#
# Track frame offsets: 
#        150
#        15909
#        37361
#        55308
#        74851
#        91296
#        110837
#        125411
#        148538
#        171855
#        185200
#        200915
#
# Disc length: 2953 seconds
#
# Revision: 0
# Processed by: cddbd v1.5.2PL0 Copyright (c) Steve Scherf et al.
# Submitted via: ExactAudioCopy v1.0b4
#
DISCID=c10b870c
DTITLE=Kilborn Alley - The Tolono Tapes
DYEAR=2017
DGENRE=Blues
TTITLE0=Fire With Fire
TTITLE1=Going Hard
TTITLE2=Misti
TTITLE3=Been Trying To Figure Out
TTITLE4=Terre Haute
TTITLE5=Christmas In County
TTITLE6=Home To My Baby
TTITLE7=Town Saint
TTITLE8=Cold Chills
TTITLE9=Easy To Love You
TTITLE10=Sure Is Hot
TTITLE11=Nightcreeper
EXTD=
EXTT0=
EXTT1=
EXTT2=
EXTT3=
EXTT4=
EXTT5=
EXTT6=
EXTT7=
EXTT8=
EXTT9=
EXTT10=
EXTT11=
PLAYORDER=
